<?xml version="1.0" encoding="UTF-8"?>
<svg id="Fond_blanc-2" data-name="Fond blanc" xmlns="http://www.w3.org/2000/svg" viewBox="0 0 1121.67 486">
  <defs>
    <style>
      .cls-1 {
        fill: #002d74;
      }

      .cls-1, .cls-2 {
        stroke-width: 0px;
      }

      .cls-2 {
        fill: #009ade;
      }
    </style>
  </defs>
  <g>
    <path class="cls-2" d="M404.88,35.69h64.51v280.31h-64.51V35.69Z"/>
    <path class="cls-2" d="M673.61,318.22c-17.21,0-32.92-2.82-47.16-8.45-14.24-5.63-26.4-13.49-36.49-23.58-10.09-10.08-17.95-22.25-23.58-36.48-5.64-14.24-8.45-29.96-8.45-47.16V35.69h64.51v166.85c0,16.91,4.6,30.03,13.79,39.38,9.19,9.34,21.65,14.02,37.38,14.02s28.18-4.67,37.37-14.02c9.19-9.34,13.79-22.47,13.79-39.38V35.69h64.51v166.85c0,17.21-2.82,32.92-8.45,47.16-5.64,14.24-13.5,26.4-23.58,36.48-10.09,10.09-22.25,17.95-36.49,23.58-14.23,5.64-29.96,8.45-47.16,8.45Z"/>
    <path class="cls-2" d="M935.67,97.98h-80.08v-62.29h224.69v62.29h-80.08v218.02h-64.52V97.98Z"/>
  </g>
  <g>
    <path class="cls-2" d="M314.11,260.09h-116.33s5.86-7.8,19.51-23.9c13.66-16.09,33.65-32.19,66.33-32.19h30.5v56.08Z"/>
    <path class="cls-1" d="M30.27,260.09h167.5s-5.85,7.8-19.5,23.9c-13.66,16.09-33.66,32.19-66.33,32.19H30.27v-56.08Z"/>
    <path class="cls-2" d="M314.11,175.97h-141.92s5.85-7.8,19.51-23.9c13.65-16.09,33.65-32.19,66.33-32.19h56.08v56.08Z"/>
    <path class="cls-1" d="M30.27,175.97h141.92s-5.85,7.8-19.51,23.9c-13.65,16.09-33.65,32.19-66.33,32.19H30.27v-56.08Z"/>
    <path class="cls-2" d="M314.11,91.84h-167.5s5.85-7.8,19.5-23.9c13.66-16.09,33.66-32.19,66.33-32.19h81.67v56.08Z"/>
    <path class="cls-1" d="M30.27,91.84h116.33s-5.86,7.8-19.51,23.9c-13.66,16.09-33.65,32.19-66.33,32.19h-30.5v-56.08Z"/>
  </g>
  <g>
    <path class="cls-1" d="M72.92,409.2v27.8c0,14.35-8.81,21.7-21,21.7s-21.56-7.07-21.56-21.7v-27.8h9.08v27.8c0,8.73,4.99,13.38,12.55,13.38s11.86-5.06,11.86-13.38v-27.8h9.08Z"/>
    <path class="cls-1" d="M126.13,409.07h9.15v48.6h-5.68v.07l-25.51-32.79v32.72h-9.15v-48.53h7.42l23.78,30.09v-30.16Z"/>
    <path class="cls-1" d="M156.89,457.66v-48.53h9.08v48.53h-9.08Z"/>
    <path class="cls-1" d="M212.61,457.87h-9.5l-20.17-48.74h10.26l14.63,37.78,14.7-37.78h10.26l-20.17,48.74Z"/>
    <path class="cls-1" d="M286.33,457.66h-36.33v-48.53h36.33v8.87h-27.24v11.16h26.27v8.53h-26.27v10.95h27.24v9.01Z"/>
    <path class="cls-1" d="M349.92,457.66h-10.88l-14.14-16.22h-8.8v16.22h-9.15v-48.6c7.69,0,15.39.07,23.09.07,11.44.07,17.47,7.7,17.47,16.08,0,6.66-3.05,13.38-12.27,15.25l14.7,16.57v.62ZM316.09,417.66v15.53h13.93c5.82,0,8.32-3.88,8.32-7.77s-2.57-7.76-8.32-7.76h-13.93Z"/>
    <path class="cls-1" d="M396,420.85c-1.66-2.77-6.24-5.4-11.51-5.4-6.79,0-10.05,2.84-10.05,6.45,0,4.23,4.99,5.4,10.82,6.1,10.12,1.25,19.55,3.88,19.55,15.46,0,10.81-9.57,15.46-20.38,15.46-9.91,0-17.54-3.05-21.14-11.92l7.63-3.95c2.15,5.34,7.76,7.7,13.66,7.7s11.16-2.01,11.16-7.28c0-4.58-4.78-6.45-11.23-7.14-9.91-1.18-19.06-3.81-19.06-14.7,0-9.98,9.84-14.07,18.79-14.14,7.55,0,15.39,2.15,19.06,9.64l-7.28,3.74Z"/>
    <path class="cls-1" d="M424.33,457.66v-48.53h9.08v48.53h-9.08Z"/>
    <path class="cls-1" d="M466.01,417.45h-15.39v-8.32h39.93v8.32h-15.39v40.21h-9.15v-40.21Z"/>
    <path class="cls-1" d="M544.02,457.66h-36.33v-48.53h36.33v8.87h-27.24v11.16h26.27v8.53h-26.27v10.95h27.24v9.01ZM537.29,394.37h-9.98l-5.13,9.43v.42h7.49l7.63-9.5v-.35Z"/>
    <path class="cls-1" d="M632.42,432.98c.21,12.27-7.28,24.68-24.27,24.68h-19.06v-48.53h19.06c16.64,0,24.06,11.86,24.27,23.85ZM598.17,448.86h9.98c11.02,0,15.39-8.04,15.18-15.94-.21-7.55-4.64-15.11-15.18-15.11h-9.98v31.06Z"/>
    <path class="cls-1" d="M687.65,457.66h-36.33v-48.53h36.33v8.87h-27.24v11.16h26.27v8.53h-26.27v10.95h27.24v9.01Z"/>
    <path class="cls-1" d="M746.24,417.45h-15.39v-8.32h39.93v8.32h-15.39v40.21h-9.15v-40.21Z"/>
    <path class="cls-1" d="M836.51,433.67c-.14,12.55-7.83,25.1-24.89,25.1s-24.96-12.27-24.96-25.03,8.18-25.58,24.96-25.58,25.03,12.82,24.89,25.51ZM795.68,433.88c.21,7.97,4.51,16.5,15.94,16.5s15.74-8.6,15.88-16.57c.14-8.18-4.44-17.33-15.88-17.33s-16.15,9.22-15.94,17.4Z"/>
    <path class="cls-1" d="M898.28,409.2v27.8c0,14.35-8.81,21.7-21,21.7s-21.56-7.07-21.56-21.7v-27.8h9.08v27.8c0,8.73,4.99,13.38,12.55,13.38s11.86-5.06,11.86-13.38v-27.8h9.08Z"/>
    <path class="cls-1" d="M928.86,409.13v40.07h24.96v8.46h-34.11v-48.53h9.15Z"/>
    <path class="cls-1" d="M1018.99,433.67c-.14,12.55-7.83,25.1-24.89,25.1s-24.96-12.27-24.96-25.03,8.18-25.58,24.96-25.58,25.03,12.82,24.89,25.51ZM978.16,433.88c.21,7.97,4.51,16.5,15.94,16.5s15.74-8.6,15.88-16.57c.14-8.18-4.44-17.33-15.88-17.33s-16.15,9.22-15.94,17.4Z"/>
    <path class="cls-1" d="M1070.09,409.07h9.15v48.6h-5.68v.07l-25.51-32.79v32.72h-9.15v-48.53h7.42l23.78,30.09v-30.16Z"/>
  </g>
</svg>